<svg preserveAspectRatio="none" overflow="visible" style="display: block;" width="112.356" height="79" viewBox="0 0 112.356 79" fill="none" xmlns="http://www.w3.org/2000/svg">
<g id="logos:youtube-icon" clip-path="url(#clip0_0_4)">
<path id="Vector" d="M109.874 12.3218C109.23 9.9402 107.973 7.76897 106.228 6.02431C104.483 4.27966 102.312 3.02246 99.9307 2.3779C91.2117 0 56.1208 0 56.1208 0C56.1208 0 21.0281 0.0719776 12.3092 2.44988C9.92753 3.09447 7.75632 4.35174 6.01174 6.09648C4.26716 7.84121 3.01008 10.0125 2.3657 12.3942C-0.271588 27.8861 -1.29464 51.4922 2.43811 66.3644C3.08256 68.746 4.33967 70.9172 6.08425 72.6619C7.82882 74.4065 10 75.6637 12.3816 76.3083C21.1005 78.6862 56.1923 78.6862 56.1923 78.6862C56.1923 78.6862 91.2837 78.6862 100.002 76.3083C102.384 75.6638 104.555 74.4066 106.3 72.662C108.044 70.9173 109.302 68.746 109.946 66.3644C112.728 50.8505 113.585 27.2589 109.874 12.3218Z" fill="#FF0000"/>
<path id="Vector_2" d="M44.9518 56.2042L74.0624 39.3429L44.9518 22.4817V56.2042Z" fill="white"/>
</g>
<defs>
<clipPath id="clip0_0_4">
<rect width="112.356" height="79" fill="white"/>
</clipPath>
</defs>
</svg>
